<svg width="23" height="24" viewBox="0 0 23 24" fill="none" xmlns="http://www.w3.org/2000/svg">
	<g opacity="0.7">
		<path d="M5.42756 2.38611C5.10968 1.95016 4.52067 1.87162 4.11197 2.21069C3.70327 2.54976 3.62965 3.17804 3.94753 3.61399L8.43754 9.77173V11C8.43754 12.66 9.69379 14 11.25 14C11.3382 14 11.4254 13.9957 11.5114 13.9873L12.7796 15.7266C12.3003 15.9037 11.7857 16 11.25 16C8.93442 16 7.01254 14.2 6.62817 11.85C6.55317 11.36 6.16879 11 5.70942 11C5.13754 11 4.68754 11.54 4.77192 12.14C5.23129 15.14 7.48129 17.49 10.3125 17.92V20C10.3125 20.55 10.7344 21 11.25 21C11.7657 21 12.1875 20.55 12.1875 20V17.92C12.8159 17.8246 13.4156 17.6346 13.9735 17.3639L17.0725 21.614C17.3904 22.0499 17.9794 22.1285 18.3881 21.7894C18.7968 21.4503 18.8704 20.8221 18.5526 20.3861L5.42756 2.38611Z" fill="url(#paint0_linear_187_12593)"/>
		<path d="M15.2603 13.5852L16.4699 15.2442C17.1088 14.3542 17.5513 13.2953 17.7282 12.14C17.8219 11.54 17.3625 11 16.7907 11C16.3313 11 15.9469 11.36 15.8719 11.85C15.7697 12.4752 15.5586 13.0615 15.2603 13.5852Z" fill="url(#paint1_linear_187_12593)"/>
		<path d="M8.50852 4.32571L13.961 11.8035C14.0272 11.5479 14.0625 11.2785 14.0625 11V5.00005C14.0625 3.34005 12.8063 2.00005 11.25 2.00005C9.91125 2.00005 8.79448 2.99173 8.50852 4.32571Z" fill="url(#paint2_linear_187_12593)"/>
	</g>
	<defs>
		<linearGradient id="paint0_linear_187_12593" x1="3.75" y1="22.0001" x2="17.6716" y2="22.7245" gradientUnits="userSpaceOnUse">
			<stop stop-color="#1DD13B"/>
			<stop offset="1" stop-color="#27C6E5"/>
		</linearGradient>
		<linearGradient id="paint1_linear_187_12593" x1="3.75" y1="22.0001" x2="17.6716" y2="22.7245" gradientUnits="userSpaceOnUse">
			<stop stop-color="#1DD13B"/>
			<stop offset="1" stop-color="#27C6E5"/>
		</linearGradient>
		<linearGradient id="paint2_linear_187_12593" x1="3.75" y1="22.0001" x2="17.6716" y2="22.7245" gradientUnits="userSpaceOnUse">
			<stop stop-color="#1DD13B"/>
			<stop offset="1" stop-color="#27C6E5"/>
		</linearGradient>
	</defs>
</svg>
