<svg width="23" height="24" viewBox="0 0 23 24" fill="none" xmlns="http://www.w3.org/2000/svg">
	<path fill-rule="evenodd" clip-rule="evenodd" d="M4.32622 3.20993L4.41464 3.29321L19.4126 19.2911C19.7791 19.682 19.7791 20.3158 19.4126 20.7068C19.0743 21.0677 18.5419 21.0954 18.1738 20.7901L18.0854 20.7068L12.6544 14.913L12.6562 20C12.6562 20.5523 12.2365 21 11.7188 21L11.617 20.9956C11.3418 20.9956 11.0779 20.8839 10.8833 20.685L7.46156 16.999L2.8125 17C1.77697 17 0.9375 16.1046 0.9375 15V9C0.9375 7.89543 1.77697 7 2.8125 7L5.23406 6.998L3.08738 4.70895C2.72087 4.318 2.72087 3.68415 3.08738 3.29321C3.4257 2.93234 3.95805 2.90458 4.32622 3.20993ZM18.1061 4.906C19.5166 6.94311 20.2903 9.40749 20.2903 11.994C20.2903 13.5765 20.0007 15.1132 19.4528 16.5343L17.9897 14.9739C18.2694 14.0225 18.4153 13.0203 18.4153 11.994C18.4153 9.83925 17.7722 7.79087 16.5981 6.0952C16.2904 5.65078 16.3786 5.0243 16.795 4.69591C17.2114 4.36752 17.7984 4.46158 18.1061 4.906ZM16.2388 8.77251C16.8113 9.72859 17.1204 10.8405 17.1204 11.9986C17.1204 12.6099 17.0343 13.2083 16.8688 13.7777L15.2451 12.0458L15.2454 11.9986C15.2454 11.2248 15.04 10.486 14.6586 9.84909C14.3799 9.38365 14.5077 8.76533 14.944 8.46804C15.3804 8.17075 15.9601 8.30706 16.2388 8.77251ZM11.7187 3C12.1995 3 12.5958 3.38604 12.6499 3.88338L12.6562 4L12.6534 9.282L8.97656 5.36L10.8833 3.31058C11.1032 3.08589 11.3972 2.98311 11.6849 3.00225L11.7187 3Z" fill="url(#paint0_linear_182_12582)"/>
	<defs>
		<linearGradient id="paint0_linear_182_12582" x1="0.9375" y1="21" x2="18.8479" y2="22.3361" gradientUnits="userSpaceOnUse">
			<stop stop-color="#1DD13B"/>
			<stop offset="1" stop-color="#27C6E5"/>
		</linearGradient>
	</defs>
</svg>
