<svg width="117" height="23" viewBox="0 0 117 23" fill="none" xmlns="http://www.w3.org/2000/svg">
<path d="M0.3 9.9C0.3 6.60667 1.03667 4.206 2.51 2.698C4.00067 1.19 6.28 0.435999 9.348 0.435999C10.9773 0.435999 12.3553 0.626666 13.482 1.008C14.626 1.372 15.5533 1.944 16.264 2.724C16.9747 3.48667 17.486 4.466 17.798 5.662C18.1273 6.84067 18.292 8.25333 18.292 9.9C18.292 11.616 18.1013 13.072 17.72 14.268C17.3387 15.464 16.7667 16.4433 16.004 17.206C15.2587 17.9513 14.3227 18.4973 13.196 18.844C12.0867 19.1907 10.804 19.364 9.348 19.364C6.40133 19.364 4.15667 18.6187 2.614 17.128C1.07133 15.62 0.3 13.2107 0.3 9.9ZM4.824 9.926C4.824 11.0527 4.928 11.9887 5.136 12.734C5.36133 13.4793 5.67333 14.0687 6.072 14.502C6.47067 14.9353 6.94733 15.2387 7.502 15.412C8.074 15.5853 8.71533 15.672 9.426 15.672C10.1367 15.672 10.7607 15.5853 11.298 15.412C11.8527 15.2213 12.312 14.9093 12.676 14.476C13.04 14.0253 13.3173 13.436 13.508 12.708C13.6987 11.9627 13.794 11.0353 13.794 9.926C13.794 8.81667 13.6987 7.88933 13.508 7.144C13.3173 6.39867 13.0313 5.80067 12.65 5.35C12.2687 4.89933 11.792 4.58733 11.22 4.414C10.648 4.22333 9.98933 4.128 9.244 4.128C7.75333 4.128 6.644 4.57 5.916 5.454C5.188 6.32067 4.824 7.81133 4.824 9.926ZM21.0992 4.96H25.2332V15.516H30.1472V4.96H34.3072V15.516H36.4132V22.38H32.5912V19H21.0992V4.96ZM42.1407 12.994C42.1754 14.086 42.5134 14.8833 43.1547 15.386C43.8134 15.8713 44.8187 16.114 46.1707 16.114C46.6734 16.114 47.176 16.0793 47.6787 16.01C48.1814 15.9233 48.658 15.8107 49.1087 15.672C49.5594 15.516 49.9667 15.3427 50.3307 15.152C50.712 14.9613 51.0327 14.762 51.2927 14.554V18.09C50.946 18.3847 50.27 18.6707 49.2647 18.948C48.2594 19.2253 47.0287 19.364 45.5727 19.364C44.186 19.364 43.0074 19.208 42.0367 18.896C41.0834 18.584 40.3034 18.116 39.6967 17.492C39.09 16.868 38.648 16.0793 38.3707 15.126C38.0934 14.1727 37.9547 13.046 37.9547 11.746C37.9547 9.31933 38.5874 7.52533 39.8527 6.364C41.1354 5.18533 42.964 4.596 45.3387 4.596C46.6387 4.596 47.722 4.752 48.5887 5.064C49.4727 5.376 50.1834 5.82667 50.7207 6.416C51.2754 7.00533 51.6654 7.716 51.8907 8.548C52.1334 9.36267 52.2547 10.2813 52.2547 11.304V12.994H42.1407ZM45.2607 7.69C44.2207 7.69 43.4494 7.93267 42.9467 8.418C42.444 8.90333 42.1667 9.64 42.1147 10.628H48.1207C48.138 9.692 47.93 8.97267 47.4967 8.47C47.0807 7.95 46.3354 7.69 45.2607 7.69ZM54.871 4.96H59.005V10.186H64.439V4.96H68.599V19H64.439V13.696H59.005V19H54.871V4.96ZM72.0234 4.96H76.1574V11.122C76.1574 11.6767 76.1401 12.1793 76.1054 12.63C76.0881 13.0633 76.0621 13.4707 76.0274 13.852H76.1054C76.3481 13.436 76.5734 13.0633 76.7814 12.734C77.0068 12.3873 77.2581 12.0147 77.5354 11.616L81.9554 4.96H85.8814V19H81.7474V13.176C81.7474 12.5693 81.7561 12.006 81.7734 11.486C81.7908 10.9487 81.8168 10.472 81.8514 10.056H81.7994C81.5914 10.42 81.3748 10.7927 81.1494 11.174C80.9414 11.538 80.6988 11.9193 80.4214 12.318L75.9494 19H72.0234V4.96ZM92.5783 8.574H88.0283V4.96H101.288V8.574H96.7383V19H92.5783V8.574ZM103.434 4.96H107.568V8.964C108.001 8.92933 108.391 8.912 108.738 8.912C109.085 8.89467 109.492 8.886 109.96 8.886C111.173 8.886 112.179 8.99 112.976 9.198C113.791 9.38867 114.441 9.692 114.926 10.108C115.429 10.5067 115.784 11.0267 115.992 11.668C116.2 12.292 116.304 13.0373 116.304 13.904C116.304 14.788 116.174 15.568 115.914 16.244C115.671 16.9027 115.255 17.4573 114.666 17.908C114.094 18.3413 113.323 18.6707 112.352 18.896C111.381 19.104 110.177 19.208 108.738 19.208C107.715 19.208 106.779 19.182 105.93 19.13C105.081 19.0953 104.249 19.052 103.434 19V4.96ZM107.516 15.958C107.759 15.9927 107.993 16.0187 108.218 16.036C108.461 16.036 108.764 16.036 109.128 16.036C110.237 16.036 110.991 15.8713 111.39 15.542C111.789 15.1953 111.988 14.6493 111.988 13.904C111.988 13.5573 111.945 13.2627 111.858 13.02C111.771 12.76 111.615 12.552 111.39 12.396C111.165 12.2227 110.853 12.1013 110.454 12.032C110.073 11.9453 109.587 11.902 108.998 11.902C108.79 11.902 108.565 11.9107 108.322 11.928C108.097 11.9453 107.828 11.9627 107.516 11.98V15.958Z" fill="url(#paint0_linear_214_46256)"/>
<defs>
<linearGradient id="paint0_linear_214_46256" x1="-1" y1="28" x2="104.759" y2="54.9061" gradientUnits="userSpaceOnUse">
<stop stop-color="#1DD13B"/>
<stop offset="1" stop-color="#27C6E5"/>
</linearGradient>
</defs>
</svg>
