<svg width="211" height="20" viewBox="0 0 211 20" fill="none" xmlns="http://www.w3.org/2000/svg">
<path d="M0.366 0.799999H15.862V19H11.624V4.596H4.63V19H0.366V0.799999ZM18.9643 11.954C18.9643 9.458 19.6057 7.612 20.8883 6.416C22.171 5.20267 24.069 4.596 26.5823 4.596C29.1823 4.596 31.0803 5.194 32.2763 6.39C33.4723 7.56867 34.0703 9.432 34.0703 11.98C34.0703 14.528 33.4463 16.4 32.1983 17.596C30.9677 18.7747 29.0697 19.364 26.5043 19.364C23.8697 19.364 21.9543 18.7573 20.7583 17.544C19.5623 16.3307 18.9643 14.4673 18.9643 11.954ZM23.2283 12.058C23.2283 13.3927 23.4797 14.398 23.9823 15.074C24.485 15.7327 25.343 16.062 26.5563 16.062C27.7177 16.062 28.5497 15.75 29.0523 15.126C29.555 14.502 29.8063 13.488 29.8063 12.084V11.954C29.8063 10.5327 29.5637 9.50133 29.0783 8.86C28.6103 8.21867 27.7523 7.898 26.5043 7.898C25.2737 7.898 24.4157 8.22733 23.9303 8.886C23.4623 9.52733 23.2283 10.55 23.2283 11.954V12.058ZM36.0213 14.554C36.628 14.97 37.3907 15.3253 38.3093 15.62C39.2453 15.9147 40.2073 16.062 41.1953 16.062C42.166 16.062 42.8767 15.9407 43.3273 15.698C43.778 15.438 44.0033 15.0307 44.0033 14.476C44.0033 14.008 43.8213 13.6787 43.4573 13.488C43.0933 13.28 42.4433 13.176 41.5073 13.176H38.9333V10.602H41.3773C42.7987 10.602 43.5093 10.134 43.5093 9.198C43.5093 8.71267 43.3187 8.37467 42.9373 8.184C42.556 7.99333 41.8367 7.898 40.7793 7.898C39.9473 7.898 39.15 8.01067 38.3873 8.236C37.642 8.46133 36.9053 8.79933 36.1773 9.25V5.532C36.992 5.20267 37.85 4.96867 38.7513 4.83C39.67 4.674 40.6927 4.596 41.8193 4.596C43.05 4.596 44.0467 4.69133 44.8093 4.882C45.5893 5.05533 46.1873 5.298 46.6033 5.61C47.0367 5.922 47.3227 6.30333 47.4613 6.754C47.6173 7.18733 47.6953 7.664 47.6953 8.184C47.6953 9.13733 47.4787 9.9 47.0453 10.472C46.612 11.044 45.9967 11.4253 45.1993 11.616C46.2567 11.7547 47.028 12.1013 47.5133 12.656C48.016 13.1933 48.2673 13.904 48.2673 14.788C48.2673 15.4987 48.146 16.14 47.9033 16.712C47.678 17.284 47.2967 17.7693 46.7593 18.168C46.222 18.5493 45.5113 18.844 44.6273 19.052C43.7607 19.26 42.6947 19.364 41.4293 19.364C40.4413 19.364 39.4533 19.2773 38.4653 19.104C37.4947 18.9307 36.68 18.688 36.0213 18.376V14.554ZM50.9764 4.96H55.1104V10.186H60.5444V4.96H64.7044V19H60.5444V13.696H55.1104V19H50.9764V4.96ZM76.5529 16.972C76.4142 17.232 76.2062 17.5093 75.9289 17.804C75.6689 18.0813 75.3396 18.3413 74.9409 18.584C74.5596 18.8093 74.1089 18.9913 73.5889 19.13C73.0689 19.286 72.4796 19.364 71.8209 19.364C70.9889 19.364 70.2782 19.2513 69.6889 19.026C69.0996 18.8007 68.6142 18.4973 68.2329 18.116C67.8516 17.7173 67.5742 17.2493 67.4009 16.712C67.2276 16.1747 67.1409 15.594 67.1409 14.97C67.1409 13.4273 67.6349 12.3353 68.6229 11.694C69.6282 11.0527 71.2229 10.732 73.4069 10.732H76.2669V10.056C76.2669 9.31067 76.0502 8.782 75.6169 8.47C75.1836 8.14067 74.4036 7.976 73.2769 7.976C72.8089 7.976 72.3409 8.01933 71.8729 8.106C71.4049 8.19267 70.9542 8.314 70.5209 8.47C70.1049 8.626 69.7149 8.79933 69.3509 8.99C68.9869 9.18067 68.6749 9.38 68.4149 9.588V5.61C69.0216 5.31533 69.8189 5.07267 70.8069 4.882C71.7949 4.69133 72.8609 4.596 74.0049 4.596C75.2009 4.596 76.2062 4.69133 77.0209 4.882C77.8529 5.05533 78.5202 5.35 79.0229 5.766C79.5429 6.182 79.9069 6.728 80.1149 7.404C80.3402 8.06267 80.4529 8.886 80.4529 9.874V19H76.7089L76.5529 16.972ZM71.3529 14.528C71.3529 14.996 71.4916 15.3947 71.7689 15.724C72.0636 16.036 72.6009 16.192 73.3809 16.192C74.4036 16.192 75.1402 15.958 75.5909 15.49C76.0416 15.0047 76.2669 14.4067 76.2669 13.696V12.942H73.9789C72.9736 12.942 72.2802 13.0633 71.8989 13.306C71.5349 13.5313 71.3529 13.9387 71.3529 14.528ZM89.6606 13.592H87.8666V19H83.7326V4.96H87.8666V10.264H89.5306L92.7286 4.96H97.5126L93.0926 11.616L98.1626 19H93.1186L89.6606 13.592ZM98.6076 11.954C98.6076 9.458 99.2489 7.612 100.532 6.416C101.814 5.20267 103.712 4.596 106.226 4.596C108.826 4.596 110.724 5.194 111.92 6.39C113.116 7.56867 113.714 9.432 113.714 11.98C113.714 14.528 113.09 16.4 111.842 17.596C110.611 18.7747 108.713 19.364 106.148 19.364C103.513 19.364 101.598 18.7573 100.402 17.544C99.2056 16.3307 98.6076 14.4673 98.6076 11.954ZM102.872 12.058C102.872 13.3927 103.123 14.398 103.626 15.074C104.128 15.7327 104.986 16.062 106.2 16.062C107.361 16.062 108.193 15.75 108.696 15.126C109.198 14.502 109.45 13.488 109.45 12.084V11.954C109.45 10.5327 109.207 9.50133 108.722 8.86C108.254 8.21867 107.396 7.898 106.148 7.898C104.917 7.898 104.059 8.22733 103.574 8.886C103.106 9.52733 102.872 10.55 102.872 11.954V12.058ZM116.413 4.96H121.769L124.915 11.928L128.009 4.96H133.339V19H129.387V11.356C129.387 10.8533 129.404 10.4027 129.439 10.004C129.473 9.588 129.508 9.12867 129.543 8.626C129.335 9.07667 129.144 9.52733 128.971 9.978C128.815 10.4287 128.65 10.8273 128.477 11.174L126.163 16.296H123.589L121.327 11.174C121.153 10.8273 120.971 10.446 120.781 10.03C120.607 9.59667 120.417 9.15467 120.209 8.704C120.243 9.172 120.269 9.614 120.287 10.03C120.321 10.446 120.339 10.8967 120.339 11.382V19H116.413V4.96ZM136.79 4.96H140.924V11.122C140.924 11.6767 140.906 12.1793 140.872 12.63C140.854 13.0633 140.828 13.4707 140.794 13.852H140.872C141.114 13.436 141.34 13.0633 141.548 12.734C141.773 12.3873 142.024 12.0147 142.302 11.616L146.722 4.96H150.648V19H146.514V13.176C146.514 12.5693 146.522 12.006 146.54 11.486C146.557 10.9487 146.583 10.472 146.618 10.056H146.566C146.358 10.42 146.141 10.7927 145.916 11.174C145.708 11.538 145.465 11.9193 145.188 12.318L140.716 19H136.79V4.96ZM157.344 8.574H152.794V4.96H166.054V8.574H161.504V19H157.344V8.574ZM168.2 4.96H172.334V8.964C172.767 8.92933 173.157 8.912 173.504 8.912C173.851 8.89467 174.258 8.886 174.726 8.886C175.939 8.886 176.945 8.99 177.742 9.198C178.557 9.38867 179.207 9.692 179.692 10.108C180.195 10.5067 180.55 11.0267 180.758 11.668C180.966 12.292 181.07 13.0373 181.07 13.904C181.07 14.788 180.94 15.568 180.68 16.244C180.437 16.9027 180.021 17.4573 179.432 17.908C178.86 18.3413 178.089 18.6707 177.118 18.896C176.147 19.104 174.943 19.208 173.504 19.208C172.481 19.208 171.545 19.182 170.696 19.13C169.847 19.0953 169.015 19.052 168.2 19V4.96ZM172.282 15.958C172.525 15.9927 172.759 16.0187 172.984 16.036C173.227 16.036 173.53 16.036 173.894 16.036C175.003 16.036 175.757 15.8713 176.156 15.542C176.555 15.1953 176.754 14.6493 176.754 13.904C176.754 13.5573 176.711 13.2627 176.624 13.02C176.537 12.76 176.381 12.552 176.156 12.396C175.931 12.2227 175.619 12.1013 175.22 12.032C174.839 11.9453 174.353 11.902 173.764 11.902C173.556 11.902 173.331 11.9107 173.088 11.928C172.863 11.9453 172.594 11.9627 172.282 11.98V15.958ZM195.017 9.302C194.532 8.95533 193.96 8.66933 193.301 8.444C192.66 8.20133 191.862 8.08 190.909 8.08C189.609 8.08 188.638 8.35733 187.997 8.912C187.356 9.46667 187.035 10.4373 187.035 11.824C187.035 13.228 187.356 14.2507 187.997 14.892C188.656 15.5333 189.765 15.854 191.325 15.854C192.105 15.854 192.85 15.75 193.561 15.542C194.289 15.3167 194.861 15.0393 195.277 14.71V18.376C194.861 18.6013 194.263 18.818 193.483 19.026C192.72 19.2513 191.75 19.364 190.571 19.364C189.184 19.364 187.997 19.2253 187.009 18.948C186.038 18.6533 185.232 18.2027 184.591 17.596C183.95 16.9893 183.482 16.2093 183.187 15.256C182.892 14.3027 182.745 13.15 182.745 11.798C182.745 9.37133 183.36 7.56867 184.591 6.39C185.822 5.194 187.772 4.596 190.441 4.596C191.654 4.596 192.608 4.68267 193.301 4.856C193.994 5.02933 194.566 5.22 195.017 5.428V9.302ZM200.349 14.19C199.465 13.8607 198.806 13.358 198.373 12.682C197.957 11.9887 197.749 11.044 197.749 9.848C197.749 8.964 197.87 8.21 198.113 7.586C198.356 6.94467 198.763 6.416 199.335 6C199.924 5.584 200.704 5.28067 201.675 5.09C202.646 4.882 203.859 4.778 205.315 4.778C206.199 4.778 207.109 4.79533 208.045 4.83C208.981 4.84733 209.9 4.882 210.801 4.934V19H206.641V14.814H204.223L201.597 19H197.073L200.349 14.19ZM206.693 8.132C206.19 8.08 205.584 8.054 204.873 8.054C204.318 8.054 203.859 8.08867 203.495 8.158C203.131 8.22733 202.845 8.34 202.637 8.496C202.429 8.63467 202.282 8.82533 202.195 9.068C202.108 9.31067 202.065 9.59667 202.065 9.926C202.065 10.654 202.238 11.1653 202.585 11.46C202.949 11.7373 203.538 11.876 204.353 11.876H206.693V8.132Z" fill="url(#paint0_linear_214_46260)"/>
<defs>
<linearGradient id="paint0_linear_214_46260" x1="-2" y1="28" x2="167.145" y2="106.596" gradientUnits="userSpaceOnUse">
<stop stop-color="#3E79F0"/>
<stop offset="1" stop-color="#27C6E5"/>
</linearGradient>
</defs>
</svg>
