<svg width="56" height="56" viewBox="0 0 56 56" fill="none" xmlns="http://www.w3.org/2000/svg">
<g filter="url(#filter0_b_1722_160090)">
<rect width="56" height="56" rx="10" fill="#787878" fill-opacity="0.35"/>
</g>
<path fill-rule="evenodd" clip-rule="evenodd" d="M34.6674 18.6667C34.6674 14.985 31.6825 12 28.0008 12C24.3191 12 21.3341 14.985 21.3341 18.6667V20C21.3341 23.6817 24.3191 26.6667 28.0008 26.6667L28.2996 26.6597C31.8732 26.4845 34.6674 23.558 34.6674 20V18.6667ZM24.0008 18.6667C24.0008 16.4577 25.7918 14.6667 28.0008 14.6667C30.2097 14.6667 32.0008 16.4577 32.0008 18.6667V20C32.0008 22.1344 30.3239 23.8907 28.2015 23.9951L27.9681 24.0004C25.7918 24 24.0008 22.209 24.0008 20V18.6667ZM34.0007 27.9999C33.581 27.9999 33.1858 28.1975 32.934 28.5332L28.0007 35.111L23.0673 28.5332C22.8155 28.1975 22.4203 27.9999 22.0007 27.9999H21.334C16.9154 27.9999 13.334 31.5817 13.334 35.9999V42.1333C13.334 43.9102 14.774 45.3333 16.55 45.3333H39.4513C41.2273 45.3333 42.6673 43.9102 42.6673 42.1333V35.9999C42.6673 31.5817 39.0859 27.9999 34.6673 27.9999H34.0007ZM16.0007 35.9999C16.0007 33.1437 18.2457 30.8118 21.0678 30.6731L21.334 30.6665L26.934 38.1332C27.4673 38.8443 28.534 38.8443 29.0673 38.1332L34.6673 30.6665C37.6131 30.6665 40.0007 33.0544 40.0007 35.9999V42.1333C40.0007 42.4304 39.7615 42.6667 39.4513 42.6667H16.55C16.2398 42.6667 16.0007 42.4304 16.0007 42.1333V35.9999ZM36.0008 40.0117H33.3341C32.5977 40.0117 32.0008 39.4148 32.0008 38.6784C32.0008 37.942 32.5977 37.3451 33.3341 37.3451H36.0008C36.7372 37.3451 37.3341 37.942 37.3341 38.6784C37.3341 39.4148 36.7372 40.0117 36.0008 40.0117Z" fill="url(#paint0_linear_1722_160090)"/>
<defs>
<filter id="filter0_b_1722_160090" x="-4" y="-4" width="64" height="64" filterUnits="userSpaceOnUse" color-interpolation-filters="sRGB">
<feFlood flood-opacity="0" result="BackgroundImageFix"/>
<feGaussianBlur in="BackgroundImage" stdDeviation="2"/>
<feComposite in2="SourceAlpha" operator="in" result="effect1_backgroundBlur_1722_160090"/>
<feBlend mode="normal" in="SourceGraphic" in2="effect1_backgroundBlur_1722_160090" result="shape"/>
</filter>
<linearGradient id="paint0_linear_1722_160090" x1="13.334" y1="45.3333" x2="40.5307" y2="46.9939" gradientUnits="userSpaceOnUse">
<stop stop-color="#1DD13B"/>
<stop offset="1" stop-color="#27C6E5"/>
</linearGradient>
</defs>
</svg>
