<svg width="94" height="24" viewBox="0 0 94 24" fill="none" xmlns="http://www.w3.org/2000/svg">
<path d="M0.366 0.799999H4.63V10.03C4.63 10.5847 4.61267 11.148 4.578 11.72C4.56067 12.292 4.53467 12.8813 4.5 13.488C4.76 12.9507 5.02 12.422 5.28 11.902C5.55733 11.382 5.852 10.862 6.164 10.342L11.988 0.799999H16.434V19H12.17V9.744C12.17 9.20667 12.1787 8.64333 12.196 8.054C12.2133 7.44733 12.248 6.84067 12.3 6.234C12.0227 6.77133 11.754 7.30867 11.494 7.846C11.234 8.38333 10.9653 8.87733 10.688 9.328L4.812 19H0.366V0.799999ZM20.2769 4.96H30.6769V8.574H24.4109V19H20.2769V4.96ZM33.0108 4.96H36.9368L37.0668 7.014C37.4655 6.286 38.0548 5.70533 38.8348 5.272C39.6148 4.82133 40.6635 4.596 41.9808 4.596C43.0382 4.596 43.9395 4.73467 44.6848 5.012C45.4302 5.272 46.0455 5.688 46.5308 6.26C47.0162 6.832 47.3715 7.57733 47.5968 8.496C47.8222 9.39733 47.9348 10.4807 47.9348 11.746C47.9348 14.3287 47.4408 16.244 46.4528 17.492C45.4822 18.74 43.8875 19.364 41.6688 19.364C41.0102 19.364 40.4382 19.2947 39.9528 19.156C39.4675 19.0347 39.0428 18.87 38.6788 18.662C38.3322 18.454 38.0288 18.2287 37.7688 17.986C37.5262 17.726 37.3268 17.4747 37.1708 17.232V23.68H33.0108V4.96ZM37.1708 12.474C37.1708 13.566 37.4222 14.4327 37.9248 15.074C38.4275 15.7153 39.2595 16.036 40.4208 16.036C41.6168 16.036 42.4402 15.698 42.8908 15.022C43.3588 14.346 43.5928 13.2627 43.5928 11.772C43.5928 10.3853 43.3415 9.39733 42.8388 8.808C42.3362 8.21867 41.5215 7.924 40.3948 7.924C39.2508 7.924 38.4275 8.22733 37.9248 8.834C37.4222 9.42333 37.1708 10.264 37.1708 11.356V12.474ZM59.0703 16.972C58.9317 17.232 58.7237 17.5093 58.4463 17.804C58.1863 18.0813 57.857 18.3413 57.4583 18.584C57.077 18.8093 56.6263 18.9913 56.1063 19.13C55.5863 19.286 54.997 19.364 54.3383 19.364C53.5063 19.364 52.7957 19.2513 52.2063 19.026C51.617 18.8007 51.1317 18.4973 50.7503 18.116C50.369 17.7173 50.0917 17.2493 49.9183 16.712C49.745 16.1747 49.6583 15.594 49.6583 14.97C49.6583 13.4273 50.1523 12.3353 51.1403 11.694C52.1457 11.0527 53.7403 10.732 55.9243 10.732H58.7843V10.056C58.7843 9.31067 58.5677 8.782 58.1343 8.47C57.701 8.14067 56.921 7.976 55.7943 7.976C55.3263 7.976 54.8583 8.01933 54.3903 8.106C53.9223 8.19267 53.4717 8.314 53.0383 8.47C52.6223 8.626 52.2323 8.79933 51.8683 8.99C51.5043 9.18067 51.1923 9.38 50.9323 9.588V5.61C51.539 5.31533 52.3363 5.07267 53.3243 4.882C54.3123 4.69133 55.3783 4.596 56.5223 4.596C57.7183 4.596 58.7237 4.69133 59.5383 4.882C60.3703 5.05533 61.0377 5.35 61.5403 5.766C62.0603 6.182 62.4243 6.728 62.6323 7.404C62.8577 8.06267 62.9703 8.886 62.9703 9.874V19H59.2263L59.0703 16.972ZM53.8703 14.528C53.8703 14.996 54.009 15.3947 54.2863 15.724C54.581 16.036 55.1183 16.192 55.8983 16.192C56.921 16.192 57.6577 15.958 58.1083 15.49C58.559 15.0047 58.7843 14.4067 58.7843 13.696V12.942H56.4963C55.491 12.942 54.7977 13.0633 54.4163 13.306C54.0523 13.5313 53.8703 13.9387 53.8703 14.528ZM69.5 8.574H64.95V4.96H78.21V8.574H73.66V19H69.5V8.574ZM80.3556 4.96H84.4896V8.964C84.9229 8.92933 85.3129 8.912 85.6596 8.912C86.0063 8.89467 86.4136 8.886 86.8816 8.886C88.0949 8.886 89.1003 8.99 89.8976 9.198C90.7123 9.38867 91.3623 9.692 91.8476 10.108C92.3503 10.5067 92.7056 11.0267 92.9136 11.668C93.1216 12.292 93.2256 13.0373 93.2256 13.904C93.2256 14.788 93.0956 15.568 92.8356 16.244C92.5929 16.9027 92.1769 17.4573 91.5876 17.908C91.0156 18.3413 90.2443 18.6707 89.2736 18.896C88.3029 19.104 87.0983 19.208 85.6596 19.208C84.6369 19.208 83.7009 19.182 82.8516 19.13C82.0023 19.0953 81.1703 19.052 80.3556 19V4.96ZM84.4376 15.958C84.6803 15.9927 84.9143 16.0187 85.1396 16.036C85.3823 16.036 85.6856 16.036 86.0496 16.036C87.1589 16.036 87.9129 15.8713 88.3116 15.542C88.7103 15.1953 88.9096 14.6493 88.9096 13.904C88.9096 13.5573 88.8663 13.2627 88.7796 13.02C88.6929 12.76 88.5369 12.552 88.3116 12.396C88.0863 12.2227 87.7743 12.1013 87.3756 12.032C86.9943 11.9453 86.5089 11.902 85.9196 11.902C85.7116 11.902 85.4863 11.9107 85.2436 11.928C85.0183 11.9453 84.7496 11.9627 84.4376 11.98V15.958Z" fill="url(#paint0_linear_214_46259)"/>
<defs>
<linearGradient id="paint0_linear_214_46259" x1="-2" y1="28" x2="104.303" y2="26.9946" gradientUnits="userSpaceOnUse">
<stop stop-color="#FCA349"/>
<stop offset="1" stop-color="#FF52C5"/>
</linearGradient>
</defs>
</svg>
