<svg width="144" height="24" viewBox="0 0 144 24" fill="none" xmlns="http://www.w3.org/2000/svg">
<path d="M0.366 0.799999H4.63V7.872H12.248V0.799999H16.512V19H12.248V11.564H4.63V19H0.366V0.799999ZM28.7771 16.972C28.6384 17.232 28.4304 17.5093 28.1531 17.804C27.8931 18.0813 27.5638 18.3413 27.1651 18.584C26.7838 18.8093 26.3331 18.9913 25.8131 19.13C25.2931 19.286 24.7038 19.364 24.0451 19.364C23.2131 19.364 22.5024 19.2513 21.9131 19.026C21.3238 18.8007 20.8384 18.4973 20.4571 18.116C20.0758 17.7173 19.7984 17.2493 19.6251 16.712C19.4518 16.1747 19.3651 15.594 19.3651 14.97C19.3651 13.4273 19.8591 12.3353 20.8471 11.694C21.8524 11.0527 23.4471 10.732 25.6311 10.732H28.4911V10.056C28.4911 9.31067 28.2744 8.782 27.8411 8.47C27.4078 8.14067 26.6278 7.976 25.5011 7.976C25.0331 7.976 24.5651 8.01933 24.0971 8.106C23.6291 8.19267 23.1784 8.314 22.7451 8.47C22.3291 8.626 21.9391 8.79933 21.5751 8.99C21.2111 9.18067 20.8991 9.38 20.6391 9.588V5.61C21.2458 5.31533 22.0431 5.07267 23.0311 4.882C24.0191 4.69133 25.0851 4.596 26.2291 4.596C27.4251 4.596 28.4304 4.69133 29.2451 4.882C30.0771 5.05533 30.7444 5.35 31.2471 5.766C31.7671 6.182 32.1311 6.728 32.3391 7.404C32.5644 8.06267 32.6771 8.886 32.6771 9.874V19H28.9331L28.7771 16.972ZM23.5771 14.528C23.5771 14.996 23.7158 15.3947 23.9931 15.724C24.2878 16.036 24.8251 16.192 25.6051 16.192C26.6278 16.192 27.3644 15.958 27.8151 15.49C28.2658 15.0047 28.4911 14.4067 28.4911 13.696V12.942H26.2031C25.1978 12.942 24.5044 13.0633 24.1231 13.306C23.7591 13.5313 23.5771 13.9387 23.5771 14.528ZM47.4748 9.302C46.9894 8.95533 46.4174 8.66933 45.7588 8.444C45.1174 8.20133 44.3201 8.08 43.3668 8.08C42.0668 8.08 41.0961 8.35733 40.4548 8.912C39.8134 9.46667 39.4928 10.4373 39.4928 11.824C39.4928 13.228 39.8134 14.2507 40.4548 14.892C41.1134 15.5333 42.2228 15.854 43.7828 15.854C44.5628 15.854 45.3081 15.75 46.0188 15.542C46.7468 15.3167 47.3188 15.0393 47.7348 14.71V18.376C47.3188 18.6013 46.7208 18.818 45.9408 19.026C45.1781 19.2513 44.2074 19.364 43.0288 19.364C41.6421 19.364 40.4548 19.2253 39.4668 18.948C38.4961 18.6533 37.6901 18.2027 37.0488 17.596C36.4074 16.9893 35.9394 16.2093 35.6448 15.256C35.3501 14.3027 35.2028 13.15 35.2028 11.798C35.2028 9.37133 35.8181 7.56867 37.0488 6.39C38.2794 5.194 40.2294 4.596 42.8988 4.596C44.1121 4.596 45.0654 4.68267 45.7588 4.856C46.4521 5.02933 47.0241 5.22 47.4748 5.428V9.302ZM53.9979 8.574H49.4479V4.96H62.7079V8.574H58.1579V19H53.9979V8.574ZM64.8275 4.96H68.7535L68.8835 7.014C69.2822 6.286 69.8715 5.70533 70.6515 5.272C71.4315 4.82133 72.4802 4.596 73.7975 4.596C74.8549 4.596 75.7562 4.73467 76.5015 5.012C77.2469 5.272 77.8622 5.688 78.3475 6.26C78.8329 6.832 79.1882 7.57733 79.4135 8.496C79.6389 9.39733 79.7515 10.4807 79.7515 11.746C79.7515 14.3287 79.2575 16.244 78.2695 17.492C77.2989 18.74 75.7042 19.364 73.4855 19.364C72.8269 19.364 72.2549 19.2947 71.7695 19.156C71.2842 19.0347 70.8595 18.87 70.4955 18.662C70.1489 18.454 69.8455 18.2287 69.5855 17.986C69.3429 17.726 69.1435 17.4747 68.9875 17.232V23.68H64.8275V4.96ZM68.9875 12.474C68.9875 13.566 69.2389 14.4327 69.7415 15.074C70.2442 15.7153 71.0762 16.036 72.2375 16.036C73.4335 16.036 74.2569 15.698 74.7075 15.022C75.1755 14.346 75.4095 13.2627 75.4095 11.772C75.4095 10.3853 75.1582 9.39733 74.6555 8.808C74.1529 8.21867 73.3382 7.924 72.2115 7.924C71.0675 7.924 70.2442 8.22733 69.7415 8.834C69.2389 9.42333 68.9875 10.264 68.9875 11.356V12.474ZM81.709 11.954C81.709 9.458 82.3504 7.612 83.633 6.416C84.9157 5.20267 86.8137 4.596 89.327 4.596C91.927 4.596 93.825 5.194 95.021 6.39C96.217 7.56867 96.815 9.432 96.815 11.98C96.815 14.528 96.191 16.4 94.943 17.596C93.7124 18.7747 91.8144 19.364 89.249 19.364C86.6144 19.364 84.699 18.7573 83.503 17.544C82.307 16.3307 81.709 14.4673 81.709 11.954ZM85.973 12.058C85.973 13.3927 86.2244 14.398 86.727 15.074C87.2297 15.7327 88.0877 16.062 89.301 16.062C90.4624 16.062 91.2944 15.75 91.797 15.126C92.2997 14.502 92.551 13.488 92.551 12.084V11.954C92.551 10.5327 92.3084 9.50133 91.823 8.86C91.355 8.21867 90.497 7.898 89.249 7.898C88.0184 7.898 87.1604 8.22733 86.675 8.886C86.207 9.52733 85.973 10.55 85.973 11.954V12.058ZM99.514 4.96H103.648V11.122C103.648 11.6767 103.631 12.1793 103.596 12.63C103.579 13.0633 103.553 13.4707 103.518 13.852H103.596C103.839 13.436 104.064 13.0633 104.272 12.734C104.497 12.3873 104.749 12.0147 105.026 11.616L109.446 4.96H113.372V19H109.238V13.176C109.238 12.5693 109.247 12.006 109.264 11.486C109.281 10.9487 109.307 10.472 109.342 10.056H109.29C109.082 10.42 108.865 10.7927 108.64 11.174C108.432 11.538 108.189 11.9193 107.912 12.318L103.44 19H99.514V4.96ZM120.069 8.574H115.519V4.96H128.779V8.574H124.229V19H120.069V8.574ZM130.924 4.96H135.058V8.964C135.492 8.92933 135.882 8.912 136.228 8.912C136.575 8.89467 136.982 8.886 137.45 8.886C138.664 8.886 139.669 8.99 140.466 9.198C141.281 9.38867 141.931 9.692 142.416 10.108C142.919 10.5067 143.274 11.0267 143.482 11.668C143.69 12.292 143.794 13.0373 143.794 13.904C143.794 14.788 143.664 15.568 143.404 16.244C143.162 16.9027 142.746 17.4573 142.156 17.908C141.584 18.3413 140.813 18.6707 139.842 18.896C138.872 19.104 137.667 19.208 136.228 19.208C135.206 19.208 134.27 19.182 133.42 19.13C132.571 19.0953 131.739 19.052 130.924 19V4.96ZM135.006 15.958C135.249 15.9927 135.483 16.0187 135.708 16.036C135.951 16.036 136.254 16.036 136.618 16.036C137.728 16.036 138.482 15.8713 138.88 15.542C139.279 15.1953 139.478 14.6493 139.478 13.904C139.478 13.5573 139.435 13.2627 139.348 13.02C139.262 12.76 139.106 12.552 138.88 12.396C138.655 12.2227 138.343 12.1013 137.944 12.032C137.563 11.9453 137.078 11.902 136.488 11.902C136.28 11.902 136.055 11.9107 135.812 11.928C135.587 11.9453 135.318 11.9627 135.006 11.98V15.958Z" fill="url(#paint0_linear_214_46255)"/>
<defs>
<linearGradient id="paint0_linear_214_46255" x1="-2" y1="28" x2="151.422" y2="25.9055" gradientUnits="userSpaceOnUse">
<stop stop-color="#0EB029"/>
<stop offset="1" stop-color="#00A6C7"/>
</linearGradient>
</defs>
</svg>
